# File created by Blade
# Date/Time:  Tue Apr 07 20:13:45 2015
#---------------------------------------------------------
:version 1.10
:name HOM
:units
  mass 1.0
  length 1.000000
  angle deg
:documentation
     Acclaim Skeleton File
:root
   axis xyz
   order TX TY TZ RX RY RZ
   position 0.000000 0.000000 0.000000
   orientation 0 0 0
:bonedata
   begin
      id 1
      name Spine_dum
      direction 0.000000 1.000000 0.000000
      length 4.885285
      axis 0.0 0.0 0.0 xyz
   end
   begin
      id 2
      name LeftUpLeg_dum
      direction 1.000000 0.000000 0.000000
      length 2.672193
      axis 0.0 0.0 0.0 xyz
   end
   begin
      id 3
      name RightUpLeg_dum
      direction -1.000000 0.000000 0.000000
      length 2.672193
      axis 0.0 0.0 0.0 xyz
   end
   begin
      id 4
      name Spine
      direction 0.000000 1.000000 0.000000
      length 0.000000
      axis 0.0 0.0 0.0 xyz
      dof rx ry rz
   end
   begin
      id 5
      name Spine_dum1
      direction 0.000000 1.000000 0.000000
      length 16.494159
      axis 0.0 0.0 0.0 xyz
   end
   begin
      id 6
      name Spine_dum2
      direction 0.000000 1.000000 0.000000
      length 10.663448
      axis 0.0 0.0 0.0 xyz
   end
   begin
      id 7
      name Spine_dum3
      direction 0.000000 1.000000 0.000000
      length 10.663448
      axis 0.0 0.0 0.0 xyz
   end
   begin
      id 8
      name Head
      direction 0.000000 1.000000 0.000000
      length 4.527550
      axis 0.0 0.0 0.0 xyz
      dof rx ry rz
   end
   begin
      id 9
      name LeftShoulder
      direction 1.000000 0.000000 0.000000
      length 7.531907
      axis 0.0 0.0 -90.0 xyz
      dof rx ry rz
   end
   begin
      id 10
      name LeftArm
      direction 1.000000 0.000000 0.000000
      length 10.229199
      axis 0.0 0.0 -90.0 xyz
      dof rx ry rz
   end
   begin
      id 11
      name LeftForeArm
      direction 1.000000 0.000000 0.000000
      length 8.673495
      axis 0.0 0.0 -90.0 xyz
      dof ry rz rx
   end
   begin
      id 12
      name LeftHand
      direction 0.000000 0.000000 0.000000
      length 0.000000
      axis 0.0 0.0 -90.0 xyz
      dof rx ry rz
   end
   begin
      id 13
      name LeftHand_dum1
      direction 0.000000 0.000000 0.000000
      length 0.000000
      axis 0.0 0.0 -90.0 xyz
   end
   begin
      id 14
      name LeftHand_dum2
      direction 1.000000 0.000000 0.000000
      length 3.937000
      axis 0.0 0.0 -90.0 xyz
   end
   begin
      id 15
      name LeftHandThumb1
      direction 0.000000 0.000000 1.000000
      length 3.937000
      axis 0.0 0.0 -90.0 xyz
      dof rx rz ry
   end
   begin
      id 16
      name RightShoulder
      direction -1.000000 0.000000 0.000000
      length 7.531907
      axis 0.0 0.0 90.0 xyz
      dof rx ry rz
   end
   begin
      id 17
      name RightArm
      direction -1.000000 0.000000 0.000000
      length 10.229199
      axis 0.0 0.0 90.0 xyz
      dof rx ry rz
   end
   begin
      id 18
      name RightForeArm
      direction -1.000000 0.000000 0.000000
      length 8.673495
      axis 0.0 0.0 90.0 xyz
      dof ry rz rx
   end
   begin
      id 19
      name RightHand
      direction 0.000000 0.000000 0.000000
      length 0.000000
      axis 0.0 0.0 90.0 xyz
      dof rx ry rz
   end
   begin
      id 20
      name RightHand_dum1
      direction 0.000000 0.000000 0.000000
      length 0.000000
      axis 0.0 0.0 90.0 xyz
   end
   begin
      id 21
      name RightHand_dum2
      direction -1.000000 0.000000 0.000000
      length 3.937000
      axis 0.0 0.0 90.0 xyz
   end
   begin
      id 22
      name RightHandThumb1
      direction 0.000000 0.000000 1.000000
      length 3.937000
      axis 0.0 0.0 90.0 xyz
      dof rx rz ry
   end
   begin
      id 23
      name LeftUpLeg
      direction 0.000000 -1.000000 0.000000
      length 16.263388
      axis 0.0 0.0 0.0 xyz
      dof rx ry rz
   end
   begin
      id 24
      name LeftLeg
      direction 0.000000 -1.000000 0.000000
      length 14.328163
      axis 0.0 0.0 0.0 xyz
      dof rx ry rz
   end
   begin
      id 25
      name LeftFoot
      direction 0.000000 -0.258819 0.965926
      length 5.031290
      axis 15.0 0.0 0.0 xyz
      dof rx ry rz
   end
   begin
      id 26
      name LeftToeBase
      direction 0.000000 0.000000 1.000000
      length 2.952750
      axis 0.0 0.0 0.0 xyz
      dof rx ry rz
   end
   begin
      id 27
      name RightUpLeg
      direction 0.000000 -1.000000 0.000000
      length 16.263388
      axis 0.0 0.0 0.0 xyz
      dof rx ry rz
   end
   begin
      id 28
      name RightLeg
      direction 0.000000 -1.000000 0.000000
      length 14.328163
      axis 0.0 0.0 0.0 xyz
      dof rx ry rz
   end
   begin
      id 29
      name RightFoot
      direction 0.000000 -0.258819 0.965926
      length 5.031290
      axis 15.0 0.0 0.0 xyz
      dof rx ry rz
   end
   begin
      id 30
      name RightToeBase
      direction 0.000000 0.000000 1.000000
      length 2.952750
      axis 0.0 0.0 0.0 xyz
      dof rx ry rz
   end
:hierarchy
   begin
      root Spine_dum LeftUpLeg_dum RightUpLeg_dum
      Spine_dum Spine
      LeftUpLeg_dum LeftUpLeg
      RightUpLeg_dum RightUpLeg
      Spine Spine_dum1 Spine_dum2 Spine_dum3
      Spine_dum1 Head
      Spine_dum2 LeftShoulder
      Spine_dum3 RightShoulder
      LeftShoulder LeftArm
      LeftArm LeftForeArm
      LeftForeArm LeftHand
      LeftHand LeftHand_dum1 LeftHand_dum2
      LeftHand_dum1 LeftHandThumb1
      RightShoulder RightArm
      RightArm RightForeArm
      RightForeArm RightHand
      RightHand RightHand_dum1 RightHand_dum2
      RightHand_dum1 RightHandThumb1
      LeftUpLeg LeftLeg
      LeftLeg LeftFoot
      LeftFoot LeftToeBase
      RightUpLeg RightLeg
      RightLeg RightFoot
      RightFoot RightToeBase
   end

# File created by Blade
# Date/Time:  Tue Apr 07 20:13:55 2015
# Frame Rate: 120.000 fps
#------------------------------------------------------
:FULLY-SPECIFIED
:DEGREES
591
root 2.140314 33.112194 -7.385418 -27.843980 20.690320 -22.153194
Spine 19.589536 -2.719739 16.254953
Head 4.623332 5.080813 6.950288
LeftShoulder -6.752946 38.288332 19.566302
LeftArm 80.889059 27.934509 -36.573747
LeftForeArm -67.533554 -0.000000 85.682308
LeftHand 7.026648 -0.000000 10.062247
LeftHandThumb1 -26.253704 0.000000 33.147579
RightShoulder 1.503765 1.114728 -26.046278
RightArm 24.381923 -34.889075 67.845980
RightForeArm 48.042803 0.000000 82.408412
RightHand -2.668846 -0.000000 24.588383
RightHandThumb1 -24.326973 -0.000000 -32.862282
LeftUpLeg 10.200381 0.637091 19.057209
LeftLeg 24.614643 -0.000000 -0.000000
LeftFoot -15.532856 -4.594671 -13.844846
LeftToeBase -8.260428 -0.000000 0.000000
RightUpLeg -117.506627 7.922595 18.099493
RightLeg 103.319573 -0.000000 -0.000000
RightFoot 37.519090 -12.586843 8.927198
RightToeBase 29.948027 -0.000000 -0.000000
592
root 2.142157 33.114349 -7.369299 -28.058593 20.794966 -22.183835
Spine 19.641562 -2.735500 16.265012
Head 4.780801 4.978109 6.802754
LeftShoulder -6.743458 38.499446 19.485945
LeftArm 81.062460 27.716437 -36.495886
LeftForeArm -67.519949 -0.000000 85.679817
LeftHand 6.871362 -0.000000 10.183218
LeftHandThumb1 -26.253704 0.000000 33.147579
RightShoulder 1.520772 1.090548 -26.065395
RightArm 24.351467 -34.820861 67.852024
RightForeArm 48.074960 -0.000000 82.433565
RightHand -2.646421 -0.000000 24.537774
RightHandThumb1 -24.326973 -0.000000 -32.862282
LeftUpLeg 10.365171 0.472267 18.995927
LeftLeg 24.610653 -0.000000 -0.000000
LeftFoot -15.476412 -4.248830 -13.588857
LeftToeBase -8.496109 -0.000000 0.000000
RightUpLeg -117.472498 7.840033 18.090122
RightLeg 103.360473 -0.000000 -0.000000
RightFoot 37.526736 -12.502921 8.975251
RightToeBase 30.068127 -0.000000 -0.000000
593
root 2.146419 33.117132 -7.351983 -28.252434 20.884576 -22.219079
Spine 19.677863 -2.735988 16.295462
Head 4.900786 4.835551 6.642392
LeftShoulder -6.721699 38.506524 19.457375
LeftArm 81.098187 27.696585 -36.516920
LeftForeArm -67.475197 -0.000000 85.696166
LeftHand 6.849844 -0.000000 10.479161
LeftHandThumb1 -26.253704 0.000000 33.147579
RightShoulder 1.498059 1.056613 -26.069869
RightArm 24.356111 -34.778039 67.818490
RightForeArm 48.079349 -0.000000 82.478001
RightHand -2.661236 -0.000000 24.485700
RightHandThumb1 -24.326973 -0.000000 -32.862282
LeftUpLeg 10.526026 0.233583 18.903478
LeftLeg 24.602642 -0.000000 -0.000000
LeftFoot -15.558043 -3.863099 -13.511815
LeftToeBase -8.336089 -0.000000 0.000000
RightUpLeg -117.460765 7.781649 18.100550
RightLeg 103.404777 -0.000000 -0.000000
RightFoot 37.628241 -12.338318 8.835807
RightToeBase 29.817386 -0.000000 -0.000000
594
root 2.152490 33.118466 -7.333366 -28.430919 20.976567 -22.229446
Spine 19.690359 -2.735390 16.304343
Head 5.063578 4.693724 6.483125
LeftShoulder -6.721342 38.481975 19.426800
LeftArm 81.105616 27.709062 -36.536508
LeftForeArm -67.419375 -0.000000 85.710201
LeftHand 6.763993 -0.000000 10.404340
LeftHandThumb1 -26.253704 0.000000 33.147579
RightShoulder 1.491537 1.025480 -26.078837
RightArm 24.359646 -34.746222 67.791631
RightForeArm 48.110509 -0.000000 82.510919
RightHand -2.686955 -0.000000 24.413799
RightHandThumb1 -24.326973 -0.000000 -32.862282
LeftUpLeg 10.690234 -0.057787 18.762938
LeftLeg 24.595287 -0.000000 -0.000000
LeftFoot -15.621512 -3.464074 -13.435789
LeftToeBase -8.273279 -0.000000 0.000000
RightUpLeg -117.465132 7.722600 18.084431
RightLeg 103.430881 -0.000000 -0.000000
RightFoot 37.639693 -12.345525 8.962455
RightToeBase 29.981398 -0.000000 -0.000000
595
root 2.158830 33.121079 -7.315181 -28.598544 21.035354 -22.239377
Spine 19.688048 -2.700349 16.338665
Head 5.239949 4.581179 6.318788
LeftShoulder -6.699930 38.509378 19.409398
LeftArm 81.155034 27.672623 -36.528290
LeftForeArm -67.428057 -0.000000 85.687663
LeftHand 6.904217 0.000000 10.258441
LeftHandThumb1 -26.253704 0.000000 33.147579
RightShoulder 1.478100 0.980044 -26.080085
RightArm 24.369830 -34.710414 67.759164
RightForeArm 48.158515 0.000000 82.531513
RightHand -2.666091 -0.000000 24.335135
RightHandThumb1 -24.326973 -0.000000 -32.862282
LeftUpLeg 10.858846 -0.341144 18.636584
LeftLeg 24.577255 -0.000000 -0.000000
LeftFoot -15.642660 -3.059896 -13.242655
LeftToeBase -8.568061 -0.000000 0.000000
RightUpLeg -117.468339 7.706658 18.088077
RightLeg 103.444104 -0.000000 -0.000000
RightFoot 37.780383 -12.204080 8.815938
RightToeBase 29.711476 -0.000000 -0.000000
